<?xml version="1.0" encoding="UTF-8" standalone="no"?>
<!DOCTYPE xml>
<svg
	width="400"
	height="800"
	version="1.0"
	xmlns="http://www.w3.org/2000/svg">
	<defs>
		<filter id="f1" x="0" y="0">
			<feGaussianBlur in="SourceGraphic" stdDeviation="3" />
		</filter>
	</defs>
	<!-- <rect width="100%" height="100%" rx="10" x="0%" y="0%" style="fill: #13294B;"/> -->
	<!-- Base -->
	<rect width="50%" height="30%" x="5%" y="70%" style="fill: #2C2F30;"/>
	<rect width="30%" height="30%" x="30%" y="70%" style="fill: #2F3233;"/>
	<!-- Head -->
	<rect width="80%" height="20%" rx="10" x="0%" y="60%" style="fill: #333535;"/>
	<rect width="75%" height="15%" rx="10" x="15%" y="60%" style="fill: #3A3A3A;"/>
	<!-- Windows --> 
	<rect width="78%" height="3%" rx="10" x="14%" y="62%" style="fill: #FFFF21;"/>
	<rect width="78%" height="3%" rx="10" x="14%" y="68%" style="fill: #FFFF21;"/>
	<!-- Railing -->
	<rect width="79%" height="3%" rx="5" x="13%" y="65%" style="fill: #414242;"/>
	<rect width="79%" height="3%" rx="5" x="13%" y="71%" style="fill: #414242;"/>
	<!-- Window Lighting -->
	<rect width="85%" height="4%" rx="10" x="11%" y="61.5%" filter="url(#f1)" style="fill: #FFFF21; fill-opacity: 0.2;"/>
	<rect width="85%" height="4%" rx="10" x="11%" y="67.5%" filter="url(#f1)" style="fill: #FFFF21; fill-opacity: 0.2;"/>

	<!-- Antena -->
	<rect width="40%" height="1%" rx="5" x="32%" y="10%" style="fill: #2F3233;"/>
	<rect width="2%" height="10%" rx="5" x="51.5%" y="2%" style="fill: #2F3233;"/>
	<g transform="translate(100, 100) rotate(45 60 60)">
		<rect width="40%" height="1%" rx="5" x="20%" y="19%" style="fill: #2F3233;"/>
	</g>
	<g transform="translate(100, 100) rotate(-45 60 60)">
		<rect width="35%" height="1%" rx="5" x="-7%" y="27.75%" style="fill: #2F3233"/>
	</g>
	<rect width="5%" height="50%" rx="10" x="50%" y="10%" style="fill: #2F3233;"/>
	<rect width="80%" height="1%" rx="5" x="10%" y="30%" style="fill: #2F3233;"/>
	<!-- Roof -->
	<rect width="90%" height="5%" rx="10" x="0%" y="55%" style="fill: #2F3233;"/>
	<rect width="100%" height="2.5%" rx="10" x="-5%" y="58.5%" style="fill: #2C2F30;"/>
</svg>
