<?xml version="1.0" encoding="UTF-8" standalone="no"?>
<!DOCTYPE xml>
<svg
	viewBox="0 0 100 100"
	width="50"
	height="40"
	preserveAspectRatio="xMinYMid meet"
	version="1.0"
	xmlns="http://www.w3.org/2000/svg">
	<!-- Background -->
	<!-- <rect width="100%" height="100%" rx="0" x="0%" y="0%" style="fill: rgb(0, 101, 196);" /> -->
	<svg>
		<animate
			attributeName="y"
			values="0%;2.5%;0%"
			dur="3s"
			repeatCount="indefinite" />
		<!-- Antenna -->
		<rect width="2%" height="20%" rx="1" x="70%" y="15%" style="fill: rgb(177, 177, 177);" />
		<rect width="10%" height="2%" rx="1" x="66%" y="20%" style="fill: rgb(177, 177, 177);" />
		<!-- Head -->
		<rect width="15%" height="20%" rx="5" x="65%" y="35%" style="fill: rgb(177, 177, 177);" />
		<rect width="25%" height="15%" rx="4" x="60%" y="30%" style="fill: rgb(205, 209, 208);" />
		<rect width="30%" height="4%" rx="1" x="57%" y="30%" style="fill: rgb(205, 209, 208);" />
		<!-- Window -->
		<rect width="20%" height="2%" rx="1" x="59%" y="35%" style="fill: rgb(101, 145, 193);" />
		<rect width="20%" height="2%" rx="1" x="59%" y="38%" style="fill: rgb(101, 145, 193);" />
		<!-- Body -->
		<rect width="80%" height="20%" rx="5" x="10%" y="50%" style="fill: rgb(115, 114, 120);" />
		<rect width="90%" height="5%" rx="2" x="5%" y="50%" style="fill: rgb(193, 199, 201);" />
	</svg>
	<!-- Wave Cover -->
	<rect width="90%" height="20%" rx="0" x="5%" y="62%" style="fill: rgb(0, 101, 196);" />
	<rect width="95%" height="5%" rx="2.5" x="2.5%" y="60%" style="fill: rgb(256, 256, 256);" >
		<animate
			attributeName="fill-opacity"
			begin="0s"
			values="0.0;0.5;0.0"
			dur="3s"
			repeatCount="indefinite"
			/>
	</rect>
</svg>
