<?xml version="1.0" encoding="UTF-8" standalone="no"?>
<!DOCTYPE xml>
<svg
	viewBox="0 0 100 100"
	width="50"
	height="40"
	preserveAspectRatio="xMinYMid meet"
	version="1.0"
	xmlns="http://www.w3.org/2000/svg">
	<!-- Background -->
	<!-- <rect width="100%" height="100%" rx="0" x="0%" y="0%" style="fill: rgb(0, 101, 196);" /> -->
	<svg>
		<animate
			attributeName="y"
			values="0%;2.5%;0%"
			dur="3s"
			repeatCount="indefinite" />
		<!-- Back Guns -->
		<rect width="15%" height="5%" rx="2" x="65%" y="48%"
			style="fill: rgb(190, 190, 190);" />
		<rect width="20%" height="2%" rx="1" x="65%" y="55%"
			style="fill: rgb(190, 190, 190);" transform="rotate(-5)" />
		<!-- Head -->
		<rect width="10%" height="10%" rx="1" x="48%" y="38%"
			style="fill: rgb(190, 190, 190);" />
		<rect width="15%" height="5%" rx="1" x="45%" y="42%"
			style="fill: rgb(190, 190, 190);" />
		<rect width="30%" height="10%" rx="2" x="40%" y="45%"
			style="fill: rgb(205, 205, 205);" />
		<!-- Window -->
		<rect width="20%" height="2%" rx="1" x="40%" y="46%"
			style="fill: rgb(101, 145, 193);" />
		<!-- Front Guns -->
		<rect width="15%" height="5%" rx="2" x="25%" y="48%"
			style="fill: rgb(190, 190, 190);" />
		<rect width="20%" height="2%" rx="1" x="15%" y="46%"
			style="fill: rgb(190, 190, 190);" transform="rotate(5)" />
		<!-- Body -->
		<rect width="80%" height="20%" rx="5" x="10%" y="50%"
			style="fill: rgb(115, 114, 120);" />
		<rect width="85%" height="5%" rx="3" x="7.5%" y="50%"
			style="fill: rgb(199, 199, 199);" />
	</svg>
	<!-- Wave Cover -->
	<rect width="90%" height="20%" rx="0" x="5%" y="62%" style="fill: rgb(0, 101, 196);" />
	<rect width="95%" height="5%" rx="2.5" x="2.5%" y="60%" style="fill: rgb(256, 256, 256);">
		<animate
			attributeName="fill-opacity"
			begin="0s"
			values="0.0;0.5;0.0"
			dur="3s"
			repeatCount="indefinite"
		/>
	</rect>
</svg>
